<?xml version="1.0" encoding="UTF-8" standalone="no"?>
<!-- Generator: Adobe Illustrator 16.2.1, SVG Export Plug-In . SVG Version: 6.00 Build 0)  -->

<svg
   xmlns:dc="http://purl.org/dc/elements/1.1/"
   xmlns:cc="http://creativecommons.org/ns#"
   xmlns:rdf="http://www.w3.org/1999/02/22-rdf-syntax-ns#"
   xmlns:svg="http://www.w3.org/2000/svg"
   xmlns="http://www.w3.org/2000/svg"
   xmlns:sodipodi="http://sodipodi.sourceforge.net/DTD/sodipodi-0.dtd"
   xmlns:inkscape="http://www.inkscape.org/namespaces/inkscape"
   version="1.1"
   id="Layer_1"
   x="0px"
   y="0px"
   width="512px"
   height="512px"
   viewBox="0 0 512 512"
   enable-background="new 0 0 512 512"
   xml:space="preserve"
   sodipodi:docname="android-bus.svg"
   inkscape:version="0.92.2 (5c3e80d, 2017-08-06)"><metadata
     id="metadata22"><rdf:RDF><cc:Work
         rdf:about=""><dc:format>image/svg+xml</dc:format><dc:type
           rdf:resource="http://purl.org/dc/dcmitype/StillImage" /></cc:Work></rdf:RDF></metadata><defs
     id="defs20" /><sodipodi:namedview
     pagecolor="#ffffff"
     bordercolor="#666666"
     borderopacity="1"
     objecttolerance="10"
     gridtolerance="10"
     guidetolerance="10"
     inkscape:pageopacity="0"
     inkscape:pageshadow="2"
     inkscape:window-width="1920"
     inkscape:window-height="1137"
     id="namedview18"
     showgrid="false"
     inkscape:zoom="1.890625"
     inkscape:cx="256"
     inkscape:cy="256"
     inkscape:window-x="3832"
     inkscape:window-y="-8"
     inkscape:window-maximized="1"
     inkscape:current-layer="Layer_1" /><g
     id="Icon_14_"
     style="fill:#ff0000"><g
       id="g14"
       style="fill:#ff0000"><g
         id="g12"
         style="fill:#ff0000"><path
           d="M80,352c0,19.198,13.864,24.531,26.667,36.271v38.396c0,11.729,9.599,21.334,21.333,21.334h21.333     c11.734,0,21.334-9.604,21.334-21.334v-21.333h170.666v21.333c0,11.729,9.604,21.334,21.334,21.334H384     c11.729,0,21.333-9.604,21.333-21.334v-38.396C418.136,376.531,432,370.136,432,352V148.334C432,73.667,349.864,64,256,64     S80,73.667,80,148.334V352z M160,367.989c-18.136,0-32-13.864-32-32c0-18.135,13.864-32,32-32s32,13.865,32,32     C192,354.125,178.136,367.989,160,367.989z M352,367.989c-18.136,0-32-13.864-32-32c0-18.135,13.864-32,32-32s32,13.865,32,32     C384,354.125,370.136,367.989,352,367.989z M384,245.333H128V138.667h256V245.333z"
           id="path10"
           style="fill:#ff0000" /></g></g></g></svg>